<svg xmlns="http://www.w3.org/2000/svg" width="1200" height="1200" viewBox="0 0 1200 1200" version="1.1"><path d="M 612.524 456 C 612.367 456.275, 612.226 471.012, 612.209 488.750 L 612.179 521 725.339 521.006 C 790.423 521.009, 840.915 521.407, 844.184 521.943 C 861.421 524.766, 876.311 539.674, 878.906 556.706 C 881.173 571.583, 876.896 584.026, 865.913 594.502 C 862.695 597.571, 857.461 601.301, 854.281 602.791 L 848.500 605.500 730.500 606 L 612.500 606.500 612.376 677.750 L 612.252 749 645.126 749 L 678 749 678 710.500 L 678 672 761.428 672 C 815.813 672, 847.564 671.623, 852.636 670.918 C 873.199 668.058, 895.115 657.347, 910.930 642.427 C 936.271 618.522, 948.428 585.555, 944.462 551.500 C 939.232 506.589, 907.393 470.752, 861.609 458.242 C 856.114 456.740, 843.311 456.519, 734.154 456.036 C 667.414 455.741, 612.680 455.725, 612.524 456 M 336.500 456.978 C 318.713 459.208, 298.890 468.385, 284.781 480.922 C 273.306 491.118, 262.041 509.872, 258.040 525.438 C 255.728 534.437, 255.266 551.660, 257.074 561.445 C 258.570 569.534, 264.066 582.713, 269.291 590.741 C 281.955 610.196, 299.699 623.187, 324 630.794 L 332.500 633.456 415.500 633.995 C 506.849 634.588, 501.933 634.240, 511.426 640.791 C 526.387 651.116, 523.319 670.998, 505.500 679.199 L 500.500 681.500 424 681.813 C 370.757 682.031, 345.943 681.789, 342.378 681.020 C 332.234 678.830, 322.680 670.108, 321.357 661.828 L 320.744 658 288.539 658 C 270.826 658, 256.122 658.211, 255.864 658.470 C 255.605 658.728, 255.743 662.548, 256.169 666.957 C 258.264 688.630, 271.953 712.700, 290 726.446 C 302.626 736.063, 316.422 742.560, 330.300 745.427 C 341.753 747.793, 500.248 747.786, 511.792 745.420 C 546.186 738.369, 575.435 711.256, 583.982 678.500 C 586.593 668.492, 586.850 648.712, 584.489 639.500 C 576.851 609.699, 556.299 587.103, 526.343 575.568 C 509.487 569.078, 508.264 569, 423.918 569 C 374.267 569, 346.392 568.634, 343.154 567.940 C 336.382 566.487, 328.165 561.339, 324.679 556.363 C 315.396 543.116, 325.499 525.614, 344.500 522.023 C 348.732 521.223, 372.489 520.979, 425.102 521.195 L 499.704 521.500 506.558 525 C 514.457 529.034, 519.652 534.970, 520.629 541.079 L 521.256 545 553.960 545 L 586.665 545 586.282 539.250 C 585.785 531.788, 582.402 517.966, 579.425 511.234 C 568.664 486.902, 544.680 466.948, 516.470 458.857 L 508.500 456.571 425.500 456.399 C 379.850 456.304, 339.800 456.564, 336.500 456.978" stroke="none" fill="#bab721" fill-rule="evenodd"/><path d="M 0 600.001 L 0 1200.002 600.250 1199.751 L 1200.500 1199.500 1200.751 599.750 L 1201.002 0 600.501 0 L 0 0 0 600.001 M 0.497 600.500 C 0.497 930.500, 0.611 1065.649, 0.750 900.832 C 0.889 736.015, 0.889 466.015, 0.750 300.832 C 0.611 135.649, 0.497 270.500, 0.497 600.500 M 612.524 456 C 612.367 456.275, 612.226 471.012, 612.209 488.750 L 612.179 521 725.339 521.006 C 790.423 521.009, 840.915 521.407, 844.184 521.943 C 861.421 524.766, 876.311 539.674, 878.906 556.706 C 881.173 571.583, 876.896 584.026, 865.913 594.502 C 862.695 597.571, 857.461 601.301, 854.281 602.791 L 848.500 605.500 730.500 606 L 612.500 606.500 612.376 677.750 L 612.252 749 645.126 749 L 678 749 678 710.500 L 678 672 761.428 672 C 815.813 672, 847.564 671.623, 852.636 670.918 C 873.199 668.058, 895.115 657.347, 910.930 642.427 C 936.271 618.522, 948.428 585.555, 944.462 551.500 C 939.232 506.589, 907.393 470.752, 861.609 458.242 C 856.114 456.740, 843.311 456.519, 734.154 456.036 C 667.414 455.741, 612.680 455.725, 612.524 456 M 336.500 456.978 C 318.713 459.208, 298.890 468.385, 284.781 480.922 C 273.306 491.118, 262.041 509.872, 258.040 525.438 C 255.728 534.437, 255.266 551.660, 257.074 561.445 C 258.570 569.534, 264.066 582.713, 269.291 590.741 C 281.955 610.196, 299.699 623.187, 324 630.794 L 332.500 633.456 415.500 633.995 C 506.849 634.588, 501.933 634.240, 511.426 640.791 C 526.387 651.116, 523.319 670.998, 505.500 679.199 L 500.500 681.500 424 681.813 C 370.757 682.031, 345.943 681.789, 342.378 681.020 C 332.234 678.830, 322.680 670.108, 321.357 661.828 L 320.744 658 288.539 658 C 270.826 658, 256.122 658.211, 255.864 658.470 C 255.605 658.728, 255.743 662.548, 256.169 666.957 C 258.264 688.630, 271.953 712.700, 290 726.446 C 302.626 736.063, 316.422 742.560, 330.300 745.427 C 341.753 747.793, 500.248 747.786, 511.792 745.420 C 546.186 738.369, 575.435 711.256, 583.982 678.500 C 586.593 668.492, 586.850 648.712, 584.489 639.500 C 576.851 609.699, 556.299 587.103, 526.343 575.568 C 509.487 569.078, 508.264 569, 423.918 569 C 374.267 569, 346.392 568.634, 343.154 567.940 C 336.382 566.487, 328.165 561.339, 324.679 556.363 C 315.396 543.116, 325.499 525.614, 344.500 522.023 C 348.732 521.223, 372.489 520.979, 425.102 521.195 L 499.704 521.500 506.558 525 C 514.457 529.034, 519.652 534.970, 520.629 541.079 L 521.256 545 553.960 545 L 586.665 545 586.282 539.250 C 585.785 531.788, 582.402 517.966, 579.425 511.234 C 568.664 486.902, 544.680 466.948, 516.470 458.857 L 508.500 456.571 425.500 456.399 C 379.850 456.304, 339.800 456.564, 336.500 456.978" stroke="none" fill="#e8e8e8" fill-rule="evenodd"/></svg>